:FULLY-SPECIFIED
:FORCE-ALL-JOINTS-BE-3DOF
:DEGREES
340
root 8.17334 16.0429 -20.5092 11.368 24.8488 4.91055
lfemur -10.9011 19.3625 -10.929
ltibia 41.8491 0 0
lfoot 3.25104 25.6846 0
ltoes -33.8412 0 0
rfemur -46.5785 -12.8576 5.70025
rtibia 55.1954 0 0
rfoot 3.30916 -20.638 0
rtoes 10.8809 0 0
lowerback -0.631009 -1.9099 -1.86529
upperback 1.79951 -2.4788 -0.0159175
thorax 2.27152 -1.27296 0.955103
lowerneck -5.2538 -8.92644 -0.56302
upperneck -2.59299 -11.8544 6.44293
head 0.520267 -5.88702 1.82742
lclavicle -2.93727e-14 1.27564e-14 0
lhumerus -48.1276 -35.5749 110.19
lradius 58.0472 0 0
lwrist 19.0966 0 0
lhand 6.32999 12.6568 0
lfingers 7.12502 0 0
lthumb 31.6349 39.9093 0
rclavicle -2.93727e-14 1.27564e-14 0
rhumerus -20.3686 19.1378 -70.5525
rradius 85.1615 0 0
rwrist 3.87897 0 0
rhand 18.0457 -7.97582 0
rfingers 7.12502 0 0
rthumb 42.5799 -751.083 0
341
root 8.10339 16.0655 -20.3529 11.169 23.3742 4.47784
lfemur -10.935 19.2121 -10.3242
ltibia 43.2731 0 0
lfoot 3.62044 24.5924 0
ltoes -32.6287 0 0
rfemur -45.9323 -13.0228 6.49768
rtibia 54.7413 0 0
rfoot 2.43086 -19.9582 0
rtoes 11.0604 0 0
lowerback -0.636312 -1.82889 -1.72567
upperback 1.77195 -2.36894 0.120314
thorax 2.23995 -1.21751 1.01745
lowerneck -5.36669 -8.70476 -0.571444
upperneck -2.38039 -11.5692 6.30192
head 0.589072 -5.73984 1.78607
lclavicle -2.80481e-14 1.29659e-14 0
lhumerus -47.9925 -34.8122 109.962
lradius 58.0192 0 0
lwrist 18.9434 0 0
lhand 5.775 12.5363 0
lfingers 7.12502 0 0
lthumb 31.1054 39.8863 0
rclavicle -2.80481e-14 1.29659e-14 0
rhumerus -21.4585 18.3796 -71.7151
rradius 84.9979 0 0
rwrist 4.04853 0 0
rhand 15.6828 -9.35423 0
rfingers 7.12502 0 0
rthumb 40.3163 -752.717 0
342
root 8.03343 16.0881 -20.1966 10.9465 21.8454 4.02672
lfemur -10.9828 19.0522 -9.67501
ltibia 44.8766 0 0
lfoot 3.93193 23.2043 0
ltoes -30.9178 0 0
rfemur -45.2837 -13.2419 7.47383
rtibia 54.2654 0 0
rfoot 1.4708 -19.0831 0
rtoes 11.1461 0 0
lowerback -0.6003 -1.73852 -1.59037
upperback 1.75336 -2.2486 0.25452
thorax 2.1941 -1.15658 1.08142
lowerneck -5.4899 -8.46965 -0.57649
upperneck -2.15852 -11.2662 6.16298
head 0.662011 -5.58366 1.74515
lclavicle -2.65824e-14 1.31417e-14 0
lhumerus -47.8457 -34.0339 109.7
lradius 57.9929 0 0
lwrist 18.7712 0 0
lhand 5.20271 12.3945 0
lfingers 7.12502 0 0
lthumb 30.5592 39.8438 0
rclavicle -2.65824e-14 1.31417e-14 0
rhumerus -22.6022 17.5638 -72.9372
rradius 84.7671 0 0
rwrist 4.13812 0 0
rhand 12.9775 -10.9229 0
rfingers 7.12502 0 0
rthumb 37.7259 -754.591 0
343
root 7.96347 16.1107 -20.0403 10.7042 20.2709 3.56029
lfemur -11.0484 18.885 -8.99124
ltibia 46.6303 0 0
lfoot 4.18834 21.5598 0
ltoes -28.7696 0 0
rfemur -44.6328 -13.5052 8.60593
rtibia 53.7707 0 0
rfoot 0.44036 -18.0375 0
rtoes 11.1495 0 0
lowerback -0.527065 -1.63976 -1.4588
upperback 1.74294 -2.11879 0.38619
thorax 2.13552 -1.09071 1.14597
lowerneck -5.62178 -8.22286 -0.577814
upperneck -1.92946 -10.9477 6.026
head 0.738242 -5.41969 1.70455
lclavicle -2.49954e-14 1.32838e-14 0
lhumerus -47.6882 -33.2449 109.406
lradius 57.9676 0 0
lwrist 18.5831 0 0
lhand 4.6141 12.2329 0
lfingers 7.12502 0 0
lthumb 29.9973 39.7831 0
rclavicle -2.49954e-14 1.32838e-14 0
rhumerus -23.7891 16.7017 -74.2081
rradius 84.4739 0 0
rwrist 4.15748 0 0
rhand 9.98225 -12.6513 0
rfingers 7.12502 0 0
rthumb 34.8589 -756.667 0
344
root 7.89352 16.1333 -19.884 10.4462 18.6593 3.08166
lfemur -11.1358 18.7129 -8.28272
ltibia 48.5047 0 0
lfoot 4.39252 19.6983 0
ltoes -26.2451 0 0
rfemur -43.9795 -13.8029 9.8712
rtibia 53.2601 0 0
rfoot -0.649066 -16.8461 0
rtoes 11.0822 0 0
lowerback -0.420705 -1.53354 -1.33038
upperback 1.73988 -1.98055 0.514812
thorax 2.06578 -1.02043 1.2101
lowerneck -5.76068 -7.96613 -0.575074
upperneck -1.69533 -10.616 5.89089
head 0.816925 -5.24913 1.66418
lclavicle -2.33066e-14 1.33922e-14 0
lhumerus -47.5208 -32.4497 109.083
lradius 57.9428 0 0
lwrist 18.3821 0 0
lhand 4.01015 12.0532 0
lfingers 7.12502 0 0
lthumb 29.4206 39.7053 0
rclavicle -2.33066e-14 1.33922e-14 0
rhumerus -25.0086 15.8043 -75.5168
rradius 84.1231 0 0
rwrist 4.11637 0 0
rhand 6.74933 -14.509 0
rfingers 7.12502 0 0
rthumb 31.765 -758.909 0
345
root 7.82356 16.1558 -19.7277 10.1761 17.0192 2.59392
lfemur -11.2488 18.538 -7.5593
ltibia 50.4704 0 0
lfoot 4.54729 17.6594 0
ltoes -23.4052 0 0
rfemur -43.3241 -14.1254 11.2469
rtibia 52.7367 0 0
rfoot -1.78609 -15.5339 0
rtoes 10.9557 0 0
lowerback -0.285314 -1.42083 -1.20452
upperback 1.74337 -1.83487 0.639876
thorax 1.98645 -0.946269 1.27276
lowerneck -5.90497 -7.7012 -0.567927
upperneck -1.45822 -10.2734 5.75753
head 0.897217 -5.07316 1.62393
lclavicle -2.15358e-14 1.34668e-14 0
lhumerus -47.3446 -31.6531 108.735
lradius 57.9179 0 0
lwrist 18.1712 0 0
lhand 3.39185 11.857 0
lfingers 7.12502 0 0
lthumb 28.83 39.6118 0
rclavicle -2.15358e-14 1.34668e-14 0
rhumerus -26.2499 14.8828 -76.8524
rradius 83.7194 0 0
rwrist 4.02455 0 0
rhand 3.33105 -16.4657 0
rfingers 7.12502 0 0
rthumb 28.4945 -761.28 0
346
root 7.7536 16.1784 -19.5714 9.89795 15.3592 2.10018
lfemur -11.3913 18.3626 -6.8308
ltibia 52.498 0 0
lfoot 4.6555 15.4826 0
ltoes -20.3112 0 0
rfemur -42.6664 -14.4629 12.7101
rtibia 52.2034 0 0
rfoot -2.95934 -14.1255 0
rtoes 10.7815 0 0
lowerback -0.124988 -1.30255 -1.08064
upperback 1.75259 -1.6828 0.760872
thorax 1.8991 -0.868757 1.33293
lowerneck -6.05301 -7.42983 -0.55603
upperneck -1.22023 -9.92227 5.62582
head 0.978278 -4.893 1.58369
lclavicle -1.97028e-14 1.35075e-14 0
lhumerus -47.1603 -30.8598 108.363
lradius 57.8925 0 0
lwrist 17.9534 0 0
lhand 2.76017 11.646 0
lfingers 7.12502 0 0
lthumb 28.2264 39.5036 0
rclavicle -1.97028e-14 1.35075e-14 0
rhumerus -27.5024 13.9483 -78.204
rradius 83.2677 0 0
rwrist 3.89176 0 0
rhand -0.220279 -18.4909 0
rfingers 7.12502 0 0
rthumb 25.0973 -763.742 0
347
root 7.68365 16.201 -19.4151 9.61555 13.688 1.60355
lfemur -11.5674 18.189 -6.10706
ltibia 54.5582 0 0
lfoot 4.71998 13.2073 0
ltoes -17.0239 0 0
rfemur -42.0067 -14.8058 14.2383
rtibia 51.6632 0 0
rfoot -4.15741 -12.6457 0
rtoes 10.5712 0 0
lowerback 0.0561786 -1.17966 -0.958162
upperback 1.76674 -1.52533 0.877287
thorax 1.80529 -0.788428 1.38959
lowerneck -6.20316 -7.15375 -0.53904
upperneck -0.983474 -9.56492 5.49567
head 1.05926 -4.70983 1.54337
lclavicle -1.78272e-14 1.35143e-14 0
lhumerus -46.969 -30.0743 107.971
lradius 57.8659 0 0
lwrist 17.7317 0 0
lhand 2.11611 11.4218 0
lfingers 7.12502 0 0
lthumb 27.6107 39.3821 0
rclavicle -1.78272e-14 1.35143e-14 0
rhumerus -28.7553 13.0119 -79.5607
rradius 82.7727 0 0
rwrist 3.72777 0 0
rhand -3.85235 -20.5541 0
rfingers 7.12502 0 0
rthumb 21.6234 -766.258 0
348
root 7.61369 16.2236 -19.2589 9.33278 12.014 1.10713
lfemur -11.7808 18.0194 -5.3979
ltibia 56.6215 0 0
lfoot 4.74356 10.8731 0
ltoes -13.6044 0 0
rfemur -41.3448 -15.1442 15.8085
rtibia 51.1192 0 0
rfoot -5.36892 -11.1193 0
rtoes 10.3361 0 0
lowerback 0.25409 -1.05312 -0.836491
upperback 1.785 -1.36349 0.988612
thorax 1.7066 -0.705814 1.4417
lowerneck -6.35377 -6.87471 -0.516614
upperneck -0.750041 -9.20365 5.36696
head 1.13934 -4.52486 1.50285
lclavicle -1.59288e-14 1.34871e-14 0
lhumerus -46.7715 -29.3014 107.561
lradius 57.8376 0 0
lwrist 17.5092 0 0
lhand 1.46063 11.186 0
lfingers 7.12502 0 0
lthumb 26.984 39.2484 0
rclavicle -1.59288e-14 1.34871e-14 0
rhumerus -29.9982 12.0848 -80.9117
rradius 82.2393 0 0
rwrist 3.54233 0 0
rhand -7.51284 -22.6249 0
rfingers 7.12502 0 0
rthumb 18.1228 -768.792 0
349
root 7.54374 16.2462 -19.1026 9.05351 10.3459 0.614012
lfemur -12.0356 17.8561 -4.71316
ltibia 58.6585 0 0
lfoot 4.72908 8.51949 0
ltoes -10.1138 0 0
rfemur -40.681 -15.4686 17.398
rtibia 50.5744 0 0
rfoot -6.58249 -9.57103 0
rtoes 10.0879 0 0
lowerback 0.464651 -0.923853 -0.715047
upperback 1.80657 -1.19829 1.09434
thorax 1.60459 -0.621446 1.48824
lowerneck -6.50321 -6.59445 -0.488409
upperneck -0.522036 -8.84078 5.23959
head 1.21765 -4.33929 1.46204
lclavicle -1.40272e-14 1.34258e-14 0
lhumerus -46.5688 -28.5458 107.138
lradius 57.807 0 0
lwrist 17.2889 0 0
lhand 0.794713 10.9403 0
lfingers 7.12502 0 0
lthumb 26.347 39.1038 0
rclavicle -1.40272e-14 1.34258e-14 0
rhumerus -31.2201 11.178 -82.2459
rradius 81.6721 0 0
rwrist 3.3452 0 0
rhand -11.1495 -24.6729 0
rfingers 7.12502 0 0
rthumb 14.6456 -771.306 0
350
root 7.47378 16.2688 -18.9463 8.7816 8.69222 0.127313
lfemur -12.3357 17.7014 -4.06267
ltibia 60.6398 0 0
lfoot 4.67938 6.18592 0
ltoes -6.61302 0 0
rfemur -40.0151 -15.7692 18.984
rtibia 50.0317 0 0
rfoot -7.78673 -8.02575 0
rtoes 9.83811 0 0
lowerback 0.683767 -0.792821 -0.593246
upperback 1.83064 -1.03076 1.19395
thorax 1.50083 -0.535857 1.52818
lowerneck -6.64983 -6.31472 -0.454083
upperneck -0.30156 -8.47862 5.11346
head 1.29337 -4.15431 1.42083
lclavicle -1.21422e-14 1.33304e-14 0
lhumerus -46.3617 -27.8121 106.703
lradius 57.7737 0 0
lwrist 17.0737 0 0
lhand 0.11935 10.6862 0
lfingers 7.12502 0 0
lthumb 25.7007 38.9494 0
rclavicle -1.21422e-14 1.33304e-14 0
rhumerus -32.4106 10.3027 -83.5525
rradius 81.0759 0 0
rwrist 3.14613 0 0
rhand -14.7099 -26.6676 0
rfingers 7.12502 0 0
rthumb 11.2417 -773.762 0
351
root 7.40382 16.2913 -18.79 8.52092 7.06162 -0.349867
lfemur -12.6849 17.5575 -3.45625
ltibia 62.5361 0 0
lfoot 4.5973 3.91193 0
ltoes -3.16319 0 0
rfemur -39.3474 -16.0363 20.5437
rtibia 49.4941 0 0
rfoot -8.97025 -6.50819 0
rtoes 9.59818 0 0
lowerback 0.907342 -0.660969 -0.470504
upperback 1.8564 -0.861906 1.28693
thorax 1.39689 -0.449578 1.56049
lowerneck -6.792 -6.03726 -0.413292
upperneck -0.0907135 -8.11948 4.98847
head 1.36565 -3.97113 1.37913
lclavicle -1.02935e-14 1.32008e-14 0
lhumerus -46.1513 -27.105 106.26
lradius 57.7369 0 0
lwrist 16.8668 0 0
lhand -0.564484 10.4255 0
lfingers 7.12502 0 0
lthumb 25.0461 38.7865 0
rclavicle -1.02935e-14 1.32008e-14 0
rhumerus -33.5588 9.47006 -84.8206
rradius 80.4557 0 0
rwrist 2.95487 0 0
rhand -18.1418 -28.5787 0
rfingers 7.12502 0 0
rthumb 7.96121 -776.125 0
